<?xml version="1.0" encoding="utf-8"?>
<!-- Generator: Adobe Illustrator 16.0.2, SVG Export Plug-In . SVG Version: 6.00 Build 0)  -->
<!DOCTYPE svg PUBLIC "-//W3C//DTD SVG 1.1//EN" "http://www.w3.org/Graphics/SVG/1.1/DTD/svg11.dtd">
<svg version="1.1" id="Layer_1" xmlns="http://www.w3.org/2000/svg" xmlns:xlink="http://www.w3.org/1999/xlink" x="0px" y="0px"
	 width="612px" height="792px" viewBox="0 0 612 792" enable-background="new 0 0 612 792" xml:space="preserve">
<g>
	<path d="M307.195,402.75h-2.011c-0.114,0-0.219-0.052-0.293-0.142c-0.071-0.086-0.098-0.203-0.075-0.312l1.164-5.379
		c-0.242-0.313-0.468-0.637-0.675-0.977c-0.274,2.012-2.024,3.563-4.133,3.563c-2.301,0-4.172-1.844-4.172-4.113v-5.016
		c0-0.207,0.168-0.375,0.375-0.375h1.965c0.207,0,0.375,0.168,0.375,0.375v5.016c0.004,0.781,0.656,1.422,1.457,1.422
		c0.801,0,1.453-0.641,1.453-1.422v-5.016c0-0.207,0.168-0.375,0.375-0.375h1.969c0.164,0,0.312,0.109,0.359,0.27
		c0.356,1.195,0.852,2.343,1.484,3.421c0.742-1.652,2.16-2.617,3.902-2.617c2.363,0,4.285,1.891,4.285,4.211
		c0,2.327-1.922,4.219-4.285,4.219c-0.832,0-1.652-0.199-2.391-0.578l-0.766,3.527C307.523,402.625,307.371,402.75,307.195,402.75
		L307.195,402.75z M305.648,402h1.243l0.809-3.73c0.023-0.122,0.109-0.223,0.219-0.27c0.113-0.047,0.242-0.035,0.348,0.03
		c0.766,0.481,1.59,0.724,2.449,0.724c1.949,0,3.535-1.556,3.535-3.469c0-1.906-1.586-3.457-3.535-3.457
		c-1.637,0-2.93,1.051-3.457,2.809c-0.043,0.14-0.16,0.242-0.305,0.261c-0.141,0.024-0.285-0.039-0.363-0.156
		c-0.766-1.129-1.449-2.57-1.899-3.992h-1.316v4.641c0,1.199-0.988,2.172-2.203,2.172c-1.215,0-2.203-0.973-2.203-2.172v-4.641
		h-1.219v4.641c0,1.855,1.535,3.363,3.422,3.363c1.887,0,3.422-1.508,3.422-3.363v-0.84c0-0.176,0.121-0.328,0.289-0.367
		c0.172-0.039,0.347,0.046,0.422,0.203c0.414,0.847,0.875,1.586,1.375,2.199c0.07,0.09,0.098,0.203,0.074,0.315L305.648,402z
		 M310.715,397.565c-0.828,0-1.648-0.319-2.441-0.944c-0.113-0.091-0.164-0.234-0.133-0.375l0.164-0.758
		c0.293-1.586,1.168-2.484,2.41-2.484c1.277,0,2.32,1.023,2.32,2.281C313.035,396.543,311.992,397.565,310.715,397.565
		L310.715,397.565z M308.922,396.172c0.598,0.43,1.199,0.644,1.793,0.644c0.863,0,1.566-0.687,1.57-1.53
		c0-0.844-0.707-1.531-1.57-1.531c-1.098,0-1.516,1.008-1.672,1.851L308.922,396.172z M308.922,396.172"/>
</g>
</svg>
